<svg width="28" height="25" viewBox="0 0 28 25" fill="none" xmlns="http://www.w3.org/2000/svg">
<path fill-rule="evenodd" clip-rule="evenodd" d="M11.1319 1.09373C10.9882 1.32605 10.1472 1.51613 9.26318 1.51613C6.74487 1.51613 5.61285 2.69756 4.82889 6.14514C3.96763 9.9319 3.98579 10.3864 4.99911 10.3864C5.56597 10.3864 5.9212 10.0117 6.10072 9.22482C7.35607 3.72313 7.28891 3.86168 8.90246 3.4566C10.1173 3.15164 10.5692 3.21626 11.1264 3.7734C12.056 4.70309 16.4971 4.74955 17.4074 3.83929C18.1782 3.06842 19.8125 3.01647 20.7189 3.73369C21.086 4.0243 21.614 5.30711 21.8928 6.58485C22.6885 10.236 22.757 10.3864 23.6208 10.3864C24.6117 10.3864 24.6231 10.0451 23.7564 6.20766C22.9585 2.67391 21.8678 1.51613 19.3364 1.51613C18.4524 1.51613 17.6114 1.32605 17.4678 1.09373C17.3241 0.861414 15.8986 0.671337 14.2998 0.671337C12.701 0.671337 11.2755 0.861414 11.1319 1.09373ZM1.29007 11.3157C0.494281 12.1115 0.695764 13.6042 1.68797 14.2631C2.40773 14.7413 2.7524 15.7567 3.37205 19.228C3.80078 21.6284 4.36721 23.8519 4.63079 24.17C5.29437 24.9696 22.6476 25.0147 23.7226 24.2198C24.2011 23.8658 24.6949 22.2375 25.2216 19.2778C25.8476 15.7588 26.1902 14.7425 26.9116 14.2631C27.9038 13.6042 28.1053 12.1115 27.3095 11.3157C26.5856 10.5917 2.01405 10.5917 1.29007 11.3157ZM5.99976 16.5267C6.15098 17.6283 6.27432 19.1684 6.27432 19.9494C6.27432 20.9036 6.47369 21.3686 6.88299 21.3686C7.80339 21.3686 7.879 20.9864 7.59346 17.7829C7.3755 15.3356 7.19303 14.8042 6.52776 14.6775C5.80082 14.5385 5.75097 14.713 5.99976 16.5267ZM11.0085 17.8839C11.1057 20.4571 11.2674 21.1574 11.7654 21.1574C12.2634 21.1574 12.4252 20.4571 12.5224 17.8839C12.6381 14.8084 12.5925 14.6103 11.7654 14.6103C10.9384 14.6103 10.8928 14.8084 11.0085 17.8839ZM16.0772 17.8839C16.1744 20.4571 16.3362 21.1574 16.8342 21.1574C17.3322 21.1574 17.4939 20.4571 17.5911 17.8839C17.7068 14.8084 17.6612 14.6103 16.8342 14.6103C16.0071 14.6103 15.9615 14.8084 16.0772 17.8839ZM21.3403 14.9271C21.2355 15.1012 21.0818 16.5711 20.9986 18.1927C20.8676 20.7363 20.9487 21.1612 21.5861 21.2863C22.1745 21.4012 22.3253 21.1351 22.3253 19.9802C22.3253 19.1823 22.4461 17.6478 22.5939 16.5702C22.8153 14.9537 22.746 14.6103 22.1965 14.6103C21.8302 14.6103 21.4446 14.7531 21.3403 14.9271Z" fill="white"/>
</svg>
