<svg width="28" height="25" viewBox="0 0 28 25" fill="none" xmlns="http://www.w3.org/2000/svg">
<path fill-rule="evenodd" clip-rule="evenodd" d="M11.132 1.09372C10.9884 1.32604 10.1474 1.51611 9.26336 1.51611C6.74505 1.51611 5.61304 2.69755 4.82907 6.14513C3.96781 9.93189 3.98597 10.3864 4.9993 10.3864C5.56615 10.3864 5.92138 10.0117 6.1009 9.2248C7.35625 3.72312 7.28909 3.86167 8.90264 3.45659C10.1174 3.15162 10.5694 3.21625 11.1265 3.77339C12.0562 4.70308 16.4973 4.74954 17.4075 3.83928C18.1784 3.06841 19.8127 3.01646 20.7191 3.73368C21.0862 4.02429 21.6142 5.3071 21.8929 6.58484C22.6887 10.236 22.7572 10.3864 23.621 10.3864C24.6119 10.3864 24.6233 10.0451 23.7565 6.20764C22.9586 2.6739 21.868 1.51611 19.3366 1.51611C18.4525 1.51611 17.6116 1.32604 17.4679 1.09372C17.3243 0.861403 15.8987 0.671326 14.3 0.671326C12.7012 0.671326 11.2756 0.861403 11.132 1.09372ZM1.29025 11.3157C0.494464 12.1114 0.695947 13.6042 1.68815 14.2631C2.40791 14.7413 2.75258 15.7567 3.37223 19.2279C3.80096 21.6284 4.3674 23.8519 4.63097 24.17C5.29455 24.9695 22.6478 25.0147 23.7227 24.2198C24.2013 23.8658 24.6951 22.2375 25.2218 19.2778C25.8478 15.7588 26.1904 14.7425 26.9118 14.2631C27.904 13.6042 28.1055 12.1114 27.3097 11.3157C26.5857 10.5917 2.01424 10.5917 1.29025 11.3157ZM5.99995 16.5267C6.15116 17.6283 6.2745 19.1684 6.2745 19.9494C6.2745 20.9036 6.47387 21.3686 6.88317 21.3686C7.80357 21.3686 7.87918 20.9864 7.59364 17.7829C7.37569 15.3356 7.19321 14.8042 6.52794 14.6775C5.801 14.5385 5.75116 14.713 5.99995 16.5267ZM11.0087 17.8839C11.1058 20.4571 11.2676 21.1574 11.7656 21.1574C12.2636 21.1574 12.4254 20.4571 12.5226 17.8839C12.6383 14.8084 12.5927 14.6103 11.7656 14.6103C10.9386 14.6103 10.893 14.8084 11.0087 17.8839ZM16.0774 17.8839C16.1746 20.4571 16.3363 21.1574 16.8344 21.1574C17.3324 21.1574 17.4941 20.4571 17.5913 17.8839C17.707 14.8084 17.6614 14.6103 16.8344 14.6103C16.0073 14.6103 15.9617 14.8084 16.0774 17.8839ZM21.3404 14.9271C21.2357 15.1011 21.0819 16.5711 20.9987 18.1927C20.8678 20.7363 20.9489 21.1612 21.5863 21.2863C22.1747 21.4012 22.3255 21.135 22.3255 19.9802C22.3255 19.1823 22.4463 17.6478 22.5941 16.5702C22.8154 14.9537 22.7462 14.6103 22.1966 14.6103C21.8304 14.6103 21.4448 14.7531 21.3404 14.9271Z" fill="#282525"/>
</svg>
