<svg width="21" height="21" viewBox="0 0 21 21" fill="none" xmlns="http://www.w3.org/2000/svg">
<path fill-rule="evenodd" clip-rule="evenodd" d="M15.6431 14.1262L19.8645 18.3291C20.053 18.5376 20.0437 18.8568 19.8434 19.0541L19.1047 19.7896C19.0056 19.8891 18.8707 19.945 18.73 19.945C18.5893 19.945 18.4544 19.8891 18.3553 19.7896L14.1339 15.5867C14.0172 15.4704 13.9112 15.3438 13.8173 15.2085L13.0258 14.1577C11.7162 15.1989 10.0898 15.7658 8.41388 15.7653C4.96034 15.7773 1.95934 13.4054 1.18757 10.054C0.415791 6.70249 2.07921 3.26589 5.19304 1.77873C8.30686 0.291561 12.0401 1.15073 14.1825 3.84757C16.3249 6.54442 16.3047 10.3592 14.1339 13.0335L15.1893 13.7585C15.3541 13.8635 15.5063 13.9869 15.6431 14.1262ZM3.13727 8.41C3.13727 11.3115 5.49976 13.6637 8.41405 13.6637C9.81354 13.6637 11.1557 13.1102 12.1453 12.1249C13.1349 11.1396 13.6908 9.80336 13.6908 8.41C13.6908 5.50849 11.3283 3.15635 8.41405 3.15635C5.49976 3.15635 3.13727 5.50849 3.13727 8.41Z" fill="#282525"/>
<path d="M19.8645 18.3291L20.0502 18.1612L20.0409 18.152L19.8645 18.3291ZM15.6431 14.1262L15.4646 14.3013L15.4667 14.3034L15.6431 14.1262ZM19.8434 19.0541L19.668 18.876L19.667 18.877L19.8434 19.0541ZM19.1047 19.7896L18.9283 19.6125L18.9275 19.6132L19.1047 19.7896ZM18.3553 19.7896L18.5325 19.6132L18.5317 19.6125L18.3553 19.7896ZM14.1339 15.5867L13.9575 15.7638L13.9575 15.7639L14.1339 15.5867ZM13.8173 15.2085L14.0229 15.0658L14.017 15.058L13.8173 15.2085ZM13.0258 14.1577L13.2255 14.0073L13.0711 13.8024L12.8702 13.962L13.0258 14.1577ZM8.41388 15.7653L8.41395 15.5153L8.41302 15.5154L8.41388 15.7653ZM1.18757 10.054L0.943943 10.1101H0.943943L1.18757 10.054ZM5.19304 1.77873L5.08529 1.55314L5.19304 1.77873ZM14.1825 3.84757L13.9867 4.00308V4.00308L14.1825 3.84757ZM14.1339 13.0335L13.9398 12.8759L13.7691 13.0862L13.9924 13.2395L14.1339 13.0335ZM15.1893 13.7585L15.0476 13.9646L15.0549 13.9693L15.1893 13.7585ZM12.1453 12.1249L11.9689 11.9477L12.1453 12.1249ZM20.0409 18.152L15.8195 13.949L15.4667 14.3034L19.6881 18.5063L20.0409 18.152ZM20.0188 19.2323C20.3145 18.941 20.3283 18.4694 20.0499 18.1615L19.6791 18.4968C19.7777 18.6059 19.7729 18.7726 19.668 18.876L20.0188 19.2323ZM19.281 19.9668L20.0198 19.2313L19.667 18.877L18.9283 19.6125L19.281 19.9668ZM18.73 20.195C18.937 20.195 19.1357 20.1128 19.2818 19.9661L18.9275 19.6132C18.8755 19.6655 18.8044 19.695 18.73 19.695V20.195ZM18.1782 19.9661C18.3243 20.1128 18.523 20.195 18.73 20.195V19.695C18.6556 19.695 18.5845 19.6655 18.5325 19.6132L18.1782 19.9661ZM13.9575 15.7639L18.179 19.9668L18.5317 19.6125L14.3103 15.4096L13.9575 15.7639ZM13.6119 15.351C13.7144 15.4987 13.83 15.6369 13.9575 15.7638L14.3104 15.4096C14.2043 15.3039 14.108 15.1889 14.0227 15.066L13.6119 15.351ZM12.8261 14.3082L13.6176 15.3589L14.017 15.058L13.2255 14.0073L12.8261 14.3082ZM8.41381 16.0153C10.1462 16.0159 11.8274 15.4299 13.1814 14.3534L12.8702 13.962C11.6049 14.968 10.0335 15.5158 8.41395 15.5153L8.41381 16.0153ZM0.943943 10.1101C1.74208 13.576 4.84514 16.0277 8.41474 16.0153L8.41302 15.5154C5.07554 15.5269 2.1766 13.2348 1.43119 9.99785L0.943943 10.1101ZM5.08529 1.55314C1.8663 3.09053 0.145755 6.6439 0.943943 10.1101L1.43119 9.99785C0.685826 6.76108 2.29212 3.44126 5.30078 2.00432L5.08529 1.55314ZM14.3782 3.69207C12.1631 0.903743 8.30397 0.0158937 5.08529 1.55314L5.30078 2.00432C8.30976 0.567228 11.917 1.39771 13.9867 4.00308L14.3782 3.69207ZM14.328 13.191C16.5727 10.4257 16.5936 6.48075 14.3782 3.69207L13.9867 4.00308C16.0562 6.6081 16.0367 10.2927 13.9398 12.8759L14.328 13.191ZM15.3308 13.5524L14.2755 12.8274L13.9924 13.2395L15.0477 13.9645L15.3308 13.5524ZM15.8215 13.9511C15.6715 13.7982 15.5044 13.6628 15.3236 13.5476L15.0549 13.9693C15.2037 14.0641 15.3412 14.1755 15.4646 14.3013L15.8215 13.9511ZM8.41405 13.4137C5.6368 13.4137 3.38727 11.1724 3.38727 8.41H2.88727C2.88727 11.4506 5.36273 13.9137 8.41405 13.9137V13.4137ZM11.9689 11.9477C11.0263 12.8862 9.74759 13.4137 8.41405 13.4137V13.9137C9.87949 13.9137 11.2851 13.3341 12.3217 12.3021L11.9689 11.9477ZM13.4408 8.41C13.4408 9.7367 12.9115 11.0093 11.9689 11.9477L12.3217 12.3021C13.3583 11.27 13.9408 9.87002 13.9408 8.41H13.4408ZM8.41405 3.40635C11.1913 3.40635 13.4408 5.64759 13.4408 8.41H13.9408C13.9408 5.36938 11.4654 2.90635 8.41405 2.90635V3.40635ZM3.38727 8.41C3.38727 5.64759 5.6368 3.40635 8.41405 3.40635V2.90635C5.36273 2.90635 2.88727 5.36938 2.88727 8.41H3.38727Z" fill="#282525"/>
</svg>
